<svg xmlns="http://www.w3.org/2000/svg" viewBox="0 0 73.06 73.06" fill="none" stroke="#fff" stroke-linecap="round"
     stroke-width="4">
    <circle cx="36.53" cy="36.53" r="34.53"/>
    <path d="M44.79 47.16a9.26 9.26 0 0 1-1.32-4M29.13 42.73a12.8 12.8 0 0 1-1.22 4.43"/>
    <path d="M36.36 45.58h.17c2.29 0 4.56-.46 5.47-1.37 1.31-1.31 7.07-9.19 6.17-19-.72-7.8-5.7-11.34-11.82-11.34s-11.07 3.53-11.8 11.34c-.9 9.81 4.86 17.69 6.17 19 .91.91 3.18 1.36 5.47 1.37h.17"/>
    <path d="M58.49 55.72c-1.27-5-13.7-8.56-13.7-8.56M27.91 47.16s-12.43 3.6-13.71 8.56"/>
</svg>