<svg xmlns="http://www.w3.org/2000/svg" viewBox="0 0 68.27 75.44" fill="#fff">
    <path d="M62,16.41H46.72A15.39,15.39,0,0,0,49,14.25a9.56,9.56,0,0,0,2.27-8A7.4,7.4,0,0,0,43.69,0,9.55,9.55,0,0,0,36,4a15.77,15.77,0,0,0-1.88,3.79A15.76,15.76,0,0,0,32.26,4a9.55,9.55,0,0,0-7.68-4A7.39,7.39,0,0,0,17,6.24a9.52,9.52,0,0,0,2.27,8,15.39,15.39,0,0,0,2.25,2.16H6.24A6.25,6.25,0,0,0,0,22.65v14a2.21,2.21,0,0,0,2.2,2.2H4.34V69.2a6.25,6.25,0,0,0,6.24,6.24h47.1a6.25,6.25,0,0,0,6.24-6.24V38.83h2.15a2.21,2.21,0,0,0,2.2-2.2v-14A6.25,6.25,0,0,0,62,16.41ZM21.35,7A3,3,0,0,1,24.58,4.4a5.08,5.08,0,0,1,4.09,2.13c1.59,2.25,2.5,6.66,2.95,9.88h-.5c-2.75-.83-6.39-2.51-8.44-5A5.15,5.15,0,0,1,21.35,7Zm2.74,64H10.58A1.85,1.85,0,0,1,8.74,69.2V38.83H24.09Zm0-36.61H4.4V22.65a1.84,1.84,0,0,1,1.84-1.84H24.09ZM39.77,71H28.49V21.34H39.77ZM37.15,16.41h-.5c.44-3.22,1.36-7.63,3-9.88A5.07,5.07,0,0,1,43.69,4.4,3,3,0,0,1,46.91,7a5.14,5.14,0,0,1-1.32,4.39C43.54,13.9,39.9,15.58,37.15,16.41ZM59.52,69.2A1.84,1.84,0,0,1,57.68,71H44.17V38.83H59.52Zm4.35-34.77H44.17V20.81H62a1.84,1.84,0,0,1,1.85,1.84Z"/>
</svg>