<svg xmlns="http://www.w3.org/2000/svg" viewBox="0 0 139.3 20.8" fill="#fff">
    <path d="M30.8 0H35v20.8h-4.2zM58.2 0h-8.7v20.8h4.2v-6.9h4.5a7 7 0 0 0 0-13.9zm0 9.7h-4.5V4.2h4.5a2.69 2.69 0 0 1 2.7 2.7 2.78 2.78 0 0 1-2.7 2.8zM98.1 4.25h5.8v16.5h4.2V4.25h5.7V.05H98.1v4.2zM83.7 8.4l-.4-.1-2.6-.7c-1.2-.3-1.8-.9-1.7-1.7a2.59 2.59 0 0 1 2.7-1.7 7.46 7.46 0 0 1 4.2 1.3l2.9-3.1-.3-.2A11.07 11.07 0 0 0 81.7 0c-3.8 0-6.9 2.6-6.9 5.9 0 2.7 1.8 4.8 4.8 5.7l.5.1 2.8.7c1.4.4 2.2 1.2 2 2.1s-1.4 2.1-3.2 2.1a7 7 0 0 1-4.7-1.7L74.1 18l.2.2a11.24 11.24 0 0 0 7.3 2.6c4.2 0 7.4-2.8 7.4-6.3.1-3-1.9-5.3-5.3-6.1zM14.5 20.75h6.2L10 11.05H7.3l10-11h-5.7l-7.4 8.1V.05H0v20.7h4.2v-6.4l1.5-1.6 8.8 8zM135 20.75h4.3l-9-20.7-9 20.7h4.3l1.2-2.7h7zm-2.8-6.3h-3.8l1.9-4.4z"/>
</svg>